<?xml version="1.0" encoding="utf-8"?><svg xml:space="preserve" viewBox="0 0 100 100" y="0" x="0" xmlns="http://www.w3.org/2000/svg" id="圖層_1" version="1.1" width="47px" height="47px" xmlns:xlink="http://www.w3.org/1999/xlink" style="width:100%;height:100%;background-size:initial;background-repeat-y:initial;background-repeat-x:initial;background-position-y:initial;background-position-x:initial;background-origin:initial;background-color:initial;background-clip:initial;background-attachment:initial;animation-play-state:paused" ><g class="ldl-scale" style="transform-origin:50% 50%;transform:rotate(0deg) scale(0.8, 0.8);animation-play-state:paused" ><path fill="#333" d="M76.5 90h-53C16 90 10 84 10 76.5v-53C10 16 16 10 23.5 10h53C84 10 90 16 90 23.5v53C90 84 84 90 76.5 90z" style="fill:rgb(51, 51, 51);animation-play-state:paused" ></path>
<path fill="#fff" d="M65.9 42.6c.7 0 1 .8.6 1.4L50.6 62c-.2.2-.4.3-.6.3-.2 0-.4-.1-.6-.3L33.5 43.9c-.5-.5-.1-1.4.6-1.4h11.1v-14c0-.6.5-1.1 1.1-1.1h7.5c.6 0 1.1.5 1.1 1.1v14h11z" id="XMLID_22_" style="fill:rgb(255, 255, 255);animation-play-state:paused" ></path>
<g style="animation-play-state:paused" ><path fill="#b3b3b3" d="M65.7 72.5H34.3c-.6 0-1-.5-1-1v-4.6c0-.6.5-1 1-1h31.4c.6 0 1 .5 1 1v4.6c.1.5-.4 1-1 1z" style="fill:rgb(179, 179, 179);animation-play-state:paused" ></path></g>
<metadata xmlns:d="https://loading.io/stock/" style="animation-play-state:paused" ><d:name style="animation-play-state:paused" >download</d:name>
<d:tags style="animation-play-state:paused" >download,receive,cloud,fetch,sync,ftp</d:tags>
<d:license style="animation-play-state:paused" >by</d:license>
<d:slug style="animation-play-state:paused" >xzuuwq</d:slug></metadata></g><!-- generated by https://loading.io/ --></svg>